<?xml version="1.0" encoding="utf-8"?>
<!-- Generator: Adobe Illustrator 25.4.1, SVG Export Plug-In . SVG Version: 6.00 Build 0)  -->
<svg version="1.1" id="Layer_1" xmlns="http://www.w3.org/2000/svg" xmlns:xlink="http://www.w3.org/1999/xlink" x="0px" y="0px"
	 viewBox="0 0 8192 6458" style="enable-background:new 0 0 8192 6458;" xml:space="preserve">
<style type="text/css">
	.st0{fill:#FFFFFF;}
	.st1{fill:#F7C548;}
</style>
<g>
	<g transform="translate(0.000000,6458.000000) scale(0.100000,-0.100000)">
		<path class="st0" d="M29348.5,43413.9c0.3-1.7,558.6-844.9,1241.5-1874.9l1240.6-1872l1976-1.7l1976-1.7V35321
			c0-4534.1,0.3-4388.5-13.3-4637.8c-73.9-1306.7-441.4-2440.8-1073.9-3311.7c-270.6-372.6-590.7-697.6-955.8-969.7
			c-771.2-575.1-1748.1-905.5-2872.9-972c-287.1-16.8-653.1-16.8-973.1,0c-1240.3,65.3-2244.9,372.6-3012.1,920.3
			c-174.5,124.5-328.1,255.1-484.4,410.5c-190.6,190.3-344.3,377.2-495.1,603.1c-582,871.7-875.2,2027.4-888.5,3496.8l-0.6,77.4
			l-1982.9,1.2l-1982.9,0.6l2.3-159.2c12.1-848.3,90.7-1592.4,245.2-2326.7c216.3-1028.6,574.5-1959.3,1072.2-2789.4
			c761.7-1270.6,1847.2-2276.7,3195.8-2961.9c853.8-433.3,1785.4-733.4,2813.1-905c1163.8-194.7,2459.8-216.3,3619-60.7
			c1199.3,160.9,2293.8,506.6,3270.3,1033.8c1235.7,666.4,2262.8,1619,3022.5,2802.7c436.5,680.2,787.4,1441.6,1036.1,2246.9
			c291.7,944.8,448.9,1930.4,480.9,3013c2,70.8,3.5,2375.8,3.5,6347.2v6235.7h-5229.9
			C31701.7,43416.5,29348.5,43415.4,29348.5,43413.9z"/>
		<path class="st0" d="M40546.3,40075.4v-3310.5l3110-4254.2l3110-4254.2l397.8-1.2l397.5-0.6l3477.4,4636.6l3477.4,4636.6v-7606.5
			c0-4834.8,1.2-7606.3,3.5-7605.7c1.7,0.3,907.6,632.3,2013.3,1404.1l2010.7,1403.2v9131.4v9131.4h-2303h-2303l-3339.1-4589.2
			c-1836.2-2524.5-3340.2-4589.5-3342-4589.8c-1.7-0.3-1505.8,2064.7-3342,4588.7L40576,43384.4l-15,1.2l-15,1.1L40546.3,40075.4
			L40546.3,40075.4z"/>
	</g>
	<polygon class="st1" points="8071.3,3161.9 6659.1,4194.2 6064.4,4194.2 7477.4,3161.3 6064.4,2132.7 6658.8,2133.9 	"/>
	<polygon class="st1" points="149.3,3175.5 1561.5,4207.8 2156.3,4207.8 743.2,3174.9 2156.3,2146.3 1561.8,2147.2 	"/>
</g>
</svg>
